<svg id="e7rpnWwmNxf1" xmlns="http://www.w3.org/2000/svg" xmlns:xlink="http://www.w3.org/1999/xlink" viewBox="0 0 2048 2048" shape-rendering="geometricPrecision" text-rendering="geometricPrecision" project-id="0f6c080665274038b280ffea29786d64" export-id="04862778ee944579845d45fb127fc701" cached="false"><path d="M849,469.16016l70.31772-3.61511L933,466.18751l4.75.21356l2.82588,1.09894L943,471.73533l1,6.51468-1,7.75-3,6.5-10.58984,15.6875L917,527.00001l-24.24219,36.97656-86.51562,142.02344L674,950.00001c376.95833-330,565.4375-494.33333,565.4375-493s29.1875-22.66667,87.5625-72l24-13l19-7.125l17.68359-5.95312l8.50391-2.92187l17.5625-5.15625l15.5625-4.84375L1445,339.28908l10-7.28906l7-5.625l3-2.89056l3.85684-2.95863L1473,320.00002h3.65168l1.7638,1.03788c.38968,1.3237.58452,2.12026.58452,2.38966s0,1.25189,0,2.94746l-1,18.625-3,7-6.71094,10.23047L1463,372.00002l-8,14.375-15.3125,35.625-27.69922,94.16773L1337,941.24319l108.27734-208.55566l79.03516-144.3125L1578,496.00003l23-41l15-17.6875l14.5-12.3125l16.5-11l22-10l48.375-25L1807,342.01175l114-42.01172c30.90453-9.33333,46.38422-14,46.43906-14c.08227,0,14.72614-3.37822,14.80841-3.37822.05485,0,3.59241-.82269,10.6127-2.46807l9.37866-1.56311l7.23967-.74042l5.10068.04656h6.0879l7.81555.94066l5.92337,1.48084c6.02703,1.79486,9.01148,2.69229,8.95335,2.69229s1.15542.99649,3.64065,2.98946v8.51953c-2,3.65365-3.15542,5.48047-3.46626,5.48047s-1.15542.66667-2.53374,2l-4.61608,2-6.80105.80876L2018,306.00002l-39,6-35.75,8c-20.83333,7.41667-31.25,11.41667-31.25,12s-9.66667,4.45833-29,11.625l-26,15.29688-41,29.07813-39,37-30,32-20.75391,23.53516L1653,588.00003l-86,135-118.375,213.6875-66.64062,137.3125-79.98437,190.1582-26.1543,73.2793-6.81055,24.5625-.47852,21l.47852,16.82227v16.17773l3,16.75l4.91113,16.25l4.86621,10.875l4.5625,9.125l4.625,6l7.89453,10l6.10547,5l14.25,7l12.87891,3l13.87109,1l16-1.68359l15-1.78298l14.24609-3.53342l24.22483-6l6.77908-1l6.18679-.45826l3.56321.45826l4.6875.8125l1.90234.59819l1.09766,4.14674v5.44256L1437,1500.22269l-4,3.77734-123,36-90.6875,24-21.04883,5-8.69465,1.32152-9.06902.70252-7.9375-.63865-6.5625-1.38538-6-3-4.07031-2-3.92969-4-6.28125-7L1140,1546.58598l-4-8.58594-5-12.01172.0625-17.98828l25.875-164l22.00977-145l1.55273-25.6875-1.84741-14.5L1177,1147.87504l-2-6.875-2.4375-7-3.87891-9.5625-4.68359-7.4375-8.07031-9-8.64844-9.1875-10.72266-8.8125-15.87109-9L1101,1070.60942l-54.0625-11.60937-50.38756-4L949,1054.20537l-72,3.84424-110.875,8.63794L646,1080.25005l-58,11.1875-16.77734,5.5625-5.78516,1.8125-9.65712,4.1875L546,1110.31255l-17,16.6875-25.27693,20.875L395,1258.00005l-167.16406,176.0625-109.89844,138.3125-37.8125,49.875-23.125,43.75-12.4187,33.99853L38,1732.00005l-4,26.65234-3,8.34766-4,3-5,1-5-1-2-3-1-7-12-90.6875-2.27734-20.77344L0,1616.00005l4-11.875l5-17.8125l9-13.9375l9.8125-16.5625l15.10156-17.8125L55,1524.56255l26-27.5625l354.1875-329.6875l5.8125-6.5l43.125-69.375.875-3.4375v-1l-30-51-4.98921-9.46383-1.74469-3.73863-.14052-5.22256l2.87443-7.19715l4-4.17666l4.3125-1.73728l3.37475-1.06004l3.65557-.40385l65.21577-2l4.44141-3l2.75-3l3.25-3l178-347l26.0625-77l.9375-6l1-6-1-6-1-5-1-9-4-9-24-13-153,5h-25l-5.0625-5.8125-2.875-11.1875l1.9375-8l11-7.125L849,469.16016Zm462-22.16015h-5l-4,1.875-9,5.875-20.25391,15.17993L1206,525.00001l-245.49475,209L845,831.37696L741.27734,930.00001L690.6875,983.21972l-5.8125,6.96779-1.89523,2.4668-.66811,2.3457c1.12556,2.25,1.68834,3.47916,1.68834,3.6875s1.33333,1.48698,4,3.83594l12.08984,8.47656L713,1014.37306l14,3.9082l12.75,1.5293c7.16667,1.21075,10.83333,1.81613,11,1.81613s16.25.79111,48.25,2.37332l89-1.20246l99.21478-2.987c65.44014-2.96648,99.03522-4.60031,100.78522-4.90149s43.41667-3.54829,125-9.74133L1237.375,870L1310,466l1-11v-7.99999Z" fill="#fff" stroke-width="4.096" stroke-linejoin="round"/></svg>
